<svg width="27" height="30" viewBox="0 0 27 30" fill="none" xmlns="http://www.w3.org/2000/svg">
<path d="M26.5862 26.1043L20.4654 19.5263C21.939 17.418 22.7345 14.8518 22.7318 12.215C22.7318 5.47967 17.633 0 11.3659 0C5.09879 0 0 5.47967 0 12.215C0 18.9502 5.09879 24.4299 11.3659 24.4299C13.8195 24.4328 16.2073 23.5779 18.1691 21.9942L24.2898 28.5722C24.5997 28.8698 25.0038 29.0287 25.4192 29.0162C25.8346 29.0037 26.2298 28.8208 26.5237 28.505C26.8175 28.1892 26.9877 27.7645 26.9994 27.318C27.011 26.8716 26.8631 26.4373 26.5862 26.1043ZM3.24741 12.215C3.24741 10.4893 3.72355 8.80244 4.61562 7.36762C5.5077 5.93281 6.77563 4.81451 8.2591 4.15414C9.74256 3.49376 11.3749 3.32098 12.9498 3.65763C14.5246 3.99429 15.9712 4.82526 17.1066 6.04547C18.242 7.26568 19.0152 8.82032 19.3284 10.5128C19.6417 12.2053 19.4809 13.9596 18.8664 15.5539C18.252 17.1481 17.2114 18.5108 15.8763 19.4695C14.5412 20.4282 12.9716 20.9399 11.3659 20.9399C9.21355 20.9371 7.15007 20.017 5.62812 18.3814C4.10616 16.7457 3.24999 14.5281 3.24741 12.215Z" fill="black"/>
</svg>
